<svg height="128.54243567387826" width="320" style="width: 320px; height: 128.542px; position: absolute; top: 50%; left: 50%; transform: translate(-50%, -50%) scale(1); z-index: 0; cursor: pointer; overflow: visible;"><defs id="SvgjsDefs1001"></defs><g id="SvgjsG1007" featurekey="symbolFeature-0" transform="matrix(1.4295517774073407,0,0,1.4295517774073407,-21.47758341705978,-7.206370351764495)" fill="#1c2a6c"><g xmlns="http://www.w3.org/2000/svg"><g><path fill="#1c2a6c" d="M50,5.041c-19.571,0-34.976,14.353-34.976,33.924S37.395,94.959,50,94.959s34.976-36.423,34.976-55.994    S69.571,5.041,50,5.041z M17.555,40.931c13.847-2.52,27.116,6.662,29.637,20.51C33.344,63.961,20.075,54.778,17.555,40.931z     M52.808,61.44c2.52-13.847,15.789-23.03,29.637-20.51C79.925,54.778,66.656,63.961,52.808,61.44z"></path></g></g></g><g id="SvgjsG1008" featurekey="nameFeature-0" transform="matrix(0.9680542539341791,0,0,0.9680542539341791,119.4966118064184,39.38373670035097)" fill="#3d53a3"><path d="M0.52 40 c0 0 1.88 -2.36 1.88 -4.76 l0 -18.44 c0 -2.4 -1.88 -4.8 -1.88 -4.8 l21.48 0 l0 8.28 s-2.4 -1.88 -4.8 -1.88 l-6.8 0 l0 5.2 l2.8 0 c2.4 0 4.8 -1.88 4.8 -1.88 l0 9.36 s-2.4 -1.88 -4.8 -1.88 l-2.8 0 l0 4.4 l6.8 0 c2.4 0 4.8 -1.88 4.8 -1.88 l0 8.28 l-21.48 0 z M28.72 40 c0 0 1.88 -2.4 1.88 -4.76 l0 -16.84 l-2.44 0 c-2.36 0 -4.76 1.88 -4.76 1.88 l0 -8.28 l22.4 0 l0 8.28 s-2.4 -1.88 -4.76 -1.88 l-2.44 0 l0 16.84 c0 2.36 1.88 4.76 1.88 4.76 l-11.76 0 z M54.120000000000005 40 c0 0 0.66916 -1.7408 -0.17566 -4.7736 l-5.1412 -18.456 c-0.8836 -3.2508 -2.8032 -4.7704 -2.8032 -4.7704 l11.348 0 s-1.002 1.558 -0.5452 4.3324 l3.4708 16.188 l2.72 -12.72 l-0.8356 -3.0744 l0.011602 0.048008 c-0.8832 -3.2532 -2.77 -4.7732 -2.77 -4.7732 l11.348 0 s-1.0048 1.5624 -0.5436 4.3432 l3.2692 15.257 l3.3496 -15.63 c0.31719 -2.5472 -0.598 -3.97 -0.598 -3.97 l11.323 0 s-1.9128 1.5704 -2.804 4.7736 l-5.1404 18.453 c-0.844 3.0296 -0.17558 4.7732 -0.17558 4.7732 l-11.908 0 s0.6468 -1.7168 -0.2552 -4.7728 l-0.8708 -2.9472 l-0.8856 2.9472 c-0.9076 3.0208 -0.28 4.7728 -0.28 4.7728 l-11.108 0 z M86.77121 40 c0 0 1.9932 -1.5804 3.0424 -4.7728 l6.0636 -18.454 c0.9864 -3.0024 0.41404 -4.7736 0.41404 -4.7736 l12.709 0 s-0.5724 1.7712 0.41404 4.7736 l0 0 l6.0636 18.454 c1.0492 3.1924 3.0424 4.7724 3.0424 4.7724 l-11.749 0 s1.4008 -1.644 0.51436 -4.72 l-9.28 0 c-0.8864 3.076 0.51436 4.72 0.51436 4.72 l-11.749 0 z M99.646 29.48 l6 0 l-3 -10.48 z M118.64 40 c0 0 1.88 -2.4 1.88 -4.8 l0 -18.44 c0 -2.4 -1.88 -4.76 -1.88 -4.76 l11.76 0 s-1.88 2.36 -1.88 4.76 l0 16.84 l6.04 0 c2.36 0 4.76 -1.88 4.76 -1.88 l0 8.28 l-20.68 0 z M140.24 40 c0 0 1.88 -2.4 1.88 -4.8 l0 -18.44 c0 -2.4 -1.88 -4.76 -1.88 -4.76 l11.76 0 s-1.88 2.36 -1.88 4.76 l0 16.84 l6.04 0 c2.36 0 4.76 -1.88 4.76 -1.88 l0 8.28 l-20.68 0 z M161.84 40 c0 0 1.88 -2.36 1.88 -4.76 l0 -18.44 c0 -2.4 -1.88 -4.8 -1.88 -4.8 l21.48 0 l0 8.28 s-2.4 -1.88 -4.8 -1.88 l-6.8 0 l0 5.2 l2.8 0 c2.4 0 4.8 -1.88 4.8 -1.88 l0 9.36 s-2.4 -1.88 -4.8 -1.88 l-2.8 0 l0 4.4 l6.8 0 c2.4 0 4.8 -1.88 4.8 -1.88 l0 8.28 l-21.48 0 z M190.04 40 c0 0 1.88 -2.4 1.88 -4.76 l0 -16.84 l-2.44 0 c-2.36 0 -4.76 1.88 -4.76 1.88 l0 -8.28 l22.4 0 l0 8.28 s-2.4 -1.88 -4.76 -1.88 l-2.44 0 l0 16.84 c0 2.36 1.88 4.76 1.88 4.76 l-11.76 0 z"></path></g></svg>
